<svg width="48" height="48" viewBox="0 0 48 48" fill="none" xmlns="http://www.w3.org/2000/svg">
<path d="M32 32V28H16V32H32Z" fill="#000711"/>
<path d="M16 19.5C16 18.1193 17.1193 17 18.5 17C19.8807 17 21 18.1193 21 19.5C21 20.8808 19.8807 22 18.5 22C17.1193 22 16 20.8808 16 19.5Z" fill="#000711"/>
<path d="M29.5 17C28.1192 17 27 18.1193 27 19.5C27 20.8808 28.1192 22 29.5 22C30.8808 22 32 20.8808 32 19.5C32 18.1193 30.8808 17 29.5 17Z" fill="#000711"/>
<path fill-rule="evenodd" clip-rule="evenodd" d="M24 4C12.9543 4 4 12.9543 4 24C4 35.0456 12.9543 44 24 44C35.0456 44 44 35.0456 44 24C44 12.9543 35.0456 4 24 4ZM8 24C8 15.1634 15.1634 8 24 8C32.8366 8 40 15.1634 40 24C40 32.8366 32.8366 40 24 40C15.1634 40 8 32.8366 8 24Z" fill="#000711"/>
</svg>
