<svg width="25" height="25" viewBox="0 0 25 25" fill="none" xmlns="http://www.w3.org/2000/svg">
<path fill-rule="evenodd" clip-rule="evenodd" d="M12.3457 2.5896C6.96092 2.5896 2.5957 6.95482 2.5957 12.3396C2.5957 17.7237 6.95987 22.0885 12.3437 22.0896H12.3477C17.7315 22.0885 22.0957 17.7237 22.0957 12.3396C22.0957 6.95482 17.7305 2.5896 12.3457 2.5896ZM4.28168 10.5896C4.15985 11.1536 4.0957 11.7391 4.0957 12.3396C4.0957 12.9401 4.15985 13.5256 4.28168 14.0896H7.71079C7.63666 13.5228 7.5957 12.9379 7.5957 12.3396C7.5957 11.7413 7.63666 11.1564 7.71079 10.5896H4.28168ZM4.76052 9.0896H7.98999C8.30858 7.77147 8.78851 6.59138 9.31001 5.62069C9.54835 5.17706 9.79815 4.77193 10.0493 4.41342C7.66595 5.10271 5.72658 6.83789 4.76052 9.0896ZM9.22518 10.5896C9.14215 11.1549 9.0957 11.7403 9.0957 12.3396C9.0957 12.9389 9.14215 13.5243 9.22518 14.0896H15.4662C15.5492 13.5243 15.5957 12.9389 15.5957 12.3396C15.5957 11.7403 15.5492 11.1549 15.4662 10.5896H9.22518ZM15.153 9.0896H9.53837C9.82002 8.05088 10.2102 7.11463 10.6314 6.33059C11.0454 5.56002 11.4789 4.95606 11.849 4.55654C12.0351 4.35571 12.1909 4.22196 12.3061 4.14422C12.3209 4.13428 12.334 4.12585 12.3457 4.11872C12.3574 4.12585 12.3705 4.13428 12.3853 4.14422C12.5005 4.22196 12.6563 4.35571 12.8424 4.55654C13.2125 4.95606 13.646 5.56002 14.06 6.33059C14.4812 7.11463 14.8714 8.05088 15.153 9.0896ZM16.9806 10.5896C17.0547 11.1564 17.0957 11.7413 17.0957 12.3396C17.0957 12.9379 17.0547 13.5228 16.9806 14.0896H20.4097C20.5315 13.5256 20.5957 12.9401 20.5957 12.3396C20.5957 11.7391 20.5315 11.1536 20.4097 10.5896H16.9806ZM19.9309 9.0896H16.7014C16.3828 7.77147 15.9029 6.59138 15.3814 5.62069C15.1431 5.17706 14.8932 4.77193 14.6421 4.41342C17.0255 5.10271 18.9648 6.83789 19.9309 9.0896ZM10.0493 20.2658C7.66595 19.5765 5.72658 17.8413 4.76052 15.5896H7.98999C8.30858 16.9077 8.78851 18.0878 9.31001 19.0585C9.54835 19.5021 9.79815 19.9073 10.0493 20.2658ZM10.6314 18.3486C10.2102 17.5646 9.82002 16.6283 9.53837 15.5896H15.153C14.8714 16.6283 14.4812 17.5646 14.06 18.3486C13.646 19.1192 13.2125 19.7231 12.8424 20.1227C12.6563 20.3235 12.5005 20.4572 12.3853 20.535C12.3705 20.5449 12.3574 20.5534 12.3457 20.5605C12.334 20.5534 12.3209 20.5449 12.3061 20.535C12.1909 20.4572 12.0351 20.3235 11.849 20.1227C11.4789 19.7231 11.0454 19.1192 10.6314 18.3486ZM15.3814 19.0585C15.9029 18.0878 16.3828 16.9077 16.7014 15.5896H19.9309C18.9648 17.8413 17.0255 19.5765 14.6421 20.2658C14.8932 19.9073 15.1431 19.5021 15.3814 19.0585Z" fill="black"/>
</svg>
