<svg width="48" height="48" viewBox="0 0 48 48" fill="none" xmlns="http://www.w3.org/2000/svg">
<path d="M45 9V6H42V3H39V0H9V3H6V6H3V9H0V39H3V42H6V45H9V48H39V45H42V42H45V39H48V9H45ZM39.45 33.27H37.39V35.33H27.09V37.39H20.91V35.33H14.73V33.27H10.61V31.21H8.55V16.79H10.61V14.73H14.73V12.67H22.97V10.61H29.15V12.67H37.39V14.73H39.45V33.27Z" fill="#000711"/>
<path d="M20.9091 20.9099H16.7891V22.9699H20.9091V20.9099Z" fill="#000711"/>
<path d="M29.1494 14.7298V12.6698H22.9694V14.7298H14.7294V16.7898H10.6094V31.2098H14.7294V33.2698H20.9094V35.3298H27.0894V33.2698H37.3894V14.7298H29.1494ZM22.9694 22.9698H20.9094V25.0298H16.7894V29.1498H14.7294V18.8498H20.9094V20.9098H22.9694V22.9698ZM35.3294 22.9698H33.2694V25.0298H29.1494V27.0898H35.3294V29.1498H29.1494V31.2098H27.0894V16.7898H29.1494V20.9098H35.3294V22.9698Z" fill="#000711"/>
</svg>
