<svg width="48" height="48" viewBox="0 0 48 48" fill="none" xmlns="http://www.w3.org/2000/svg">
<path d="M45 9V6H42V3H39V0H9V3H6V6H3V9H0V39H3V42H6V45H9V48H39V45H42V42H45V39H48V9H45ZM22.93 37.2767H20.7867V39.42H16.5V37.2767H14.3567V32.99H16.5V30.8467H22.93V37.2767ZM22.93 28.7067H16.5V26.5633H14.3567V22.2767H16.5V20.1333H22.93V28.7033V28.7067ZM22.93 17.9933H16.5V15.85H14.3567V11.5633H16.5V9.42H22.93V17.99V17.9933ZM33.6433 26.5633H31.5V28.7067H27.2133V26.5633H25.07V22.2767H27.2133V20.1333H31.5V22.2767H33.6433V26.5633ZM33.6433 15.85H31.5V17.9933H25.07V9.42333H31.5V11.5667H33.6433V15.8533V15.85Z" fill="#000711"/>
</svg>
