<svg width="16" height="16" viewBox="0 0 16 16" fill="none" xmlns="http://www.w3.org/2000/svg">
<path fill-rule="evenodd" clip-rule="evenodd" d="M3.83333 4.23568V2H2.83333V4.23568C2.06383 4.45332 1.5 5.16081 1.5 6C1.5 6.8392 2.06383 7.54667 2.83333 7.76433V14H3.83333V7.76433C4.60283 7.54667 5.16667 6.8392 5.16667 6C5.16667 5.16081 4.60283 4.45332 3.83333 4.23568ZM2.5 6C2.5 5.53976 2.87309 5.16667 3.33333 5.16667C3.79357 5.16667 4.16667 5.53976 4.16667 6C4.16667 6.46024 3.79357 6.83333 3.33333 6.83333C2.87309 6.83333 2.5 6.46024 2.5 6Z" fill="#9E9E9E"/>
<path fill-rule="evenodd" clip-rule="evenodd" d="M7.49935 8.90233C6.72982 9.12 6.16602 9.82747 6.16602 10.6667C6.16602 11.5059 6.72982 12.2133 7.49935 12.431V14H8.49935V12.431C9.26888 12.2133 9.83268 11.5059 9.83268 10.6667C9.83268 9.82747 9.26888 9.12 8.49935 8.90233V2H7.49935V8.90233ZM7.16602 10.6667C7.16602 10.2064 7.53908 9.83333 7.99935 9.83333C8.45962 9.83333 8.83268 10.2064 8.83268 10.6667C8.83268 11.1269 8.45962 11.5 7.99935 11.5C7.53908 11.5 7.16602 11.1269 7.16602 10.6667Z" fill="#9E9E9E"/>
<path fill-rule="evenodd" clip-rule="evenodd" d="M13.1673 5.56901V2H12.1673V5.56901C11.3978 5.78665 10.834 6.49415 10.834 7.33333C10.834 8.17253 11.3978 8.88 12.1673 9.09767V14H13.1673V9.09767C13.9369 8.88 14.5007 8.17253 14.5007 7.33333C14.5007 6.49415 13.9369 5.78665 13.1673 5.56901ZM11.834 7.33333C11.834 6.87307 12.2071 6.5 12.6673 6.5C13.1276 6.5 13.5007 6.87307 13.5007 7.33333C13.5007 7.7936 13.1276 8.16667 12.6673 8.16667C12.2071 8.16667 11.834 7.7936 11.834 7.33333Z" fill="#9E9E9E"/>
</svg>
