<svg width="96" height="96" viewBox="0 0 96 96" fill="none" xmlns="http://www.w3.org/2000/svg">
<g clip-path="url(#clip0_774_5019)">
<path fill-rule="evenodd" clip-rule="evenodd" d="M91.2 15V18H96V21V24V72V75V78H91.2V81V84H86.4V87V90H81.6V96H14.4V90H9.6V87V84H4.8V81V78H0V75V72V24V21V18H4.8V15V12H9.6V9V6H14.4V0H81.6V6H86.4V9V12H91.2V15ZM76.5 24V27H73.5V30H70.5V33H64.5V36H55.5V39H46.5V42H37.5V45H31.5V48H25.5V51H22.5V54H19.5V57H16.5V60V63H13.5V66V69H10.5V72V75V78H13.5V75H16.5V72H19.5V69H22.5V66H28.5V63H37.5V60H46.5V57H55.5V54H61.5V51H67.5V48H70.5V45H73.5V42H76.5V39H79.5V36H82.5V33V30V27H85.5V24V21V18H82.5V21H79.5V24H76.5Z" fill="#010101"/>
</g>
<defs>
<clipPath id="clip0_774_5019">
<rect width="96" height="96" fill="white"/>
</clipPath>
</defs>
</svg>
