<svg width="97" height="96" viewBox="0 0 97 96" fill="none" xmlns="http://www.w3.org/2000/svg">
<path d="M90.6 18V12H84.6V6H78.6V0H18.6V6H12.6V12H6.59998V18H0.599976V78H6.59998V84H12.6V90H18.6V96H78.6V90H84.6V84H90.6V78H96.6V18H90.6ZM79.5 66.54H75.38V70.66H54.78V74.78H42.42V70.66H30.06V66.54H21.82V62.42H17.7V33.58H21.82V29.46H30.06V25.34H46.54V21.22H58.9V25.34H75.38V29.46H79.5V66.54Z" fill="black"/>
<path d="M42.4199 41.8198H34.1799V45.9398H42.4199V41.8198Z" fill="black"/>
<path d="M58.9 29.4598V25.3398H46.5399V29.4598H30.0599V33.5798H21.8199V62.4198H30.0599V66.5398H42.42V70.6598H54.7799V66.5398H75.3799V29.4598H58.9ZM46.5399 45.9398H42.42V50.0598H34.18V58.2998H30.0599V37.6998H42.42V41.8198H46.5399V45.9398ZM71.2599 45.9398H67.14V50.0598H58.9V54.1798H71.2599V58.2998H58.9V62.4198H54.7799V33.5798H58.9V41.8198H71.2599V45.9398Z" fill="black"/>
</svg>
