<svg width="97" height="97" viewBox="0 0 97 97" fill="none" xmlns="http://www.w3.org/2000/svg">
<path d="M90.6 18.8799V12.8799H84.6V6.87988H78.6V0.879883H18.6V6.87988H12.6V12.8799H6.59998V18.8799H0.599976V78.8799H6.59998V84.8799H12.6V90.8799H18.6V96.8799H78.6V90.8799H84.6V84.8799H90.6V78.8799H96.6V18.8799H90.6ZM46.46 75.4332H42.1733V79.7199H33.6V75.4332H29.3133V66.8599H33.6V62.5732H46.46V75.4332ZM46.46 58.2932H33.6V54.0066H29.3133V45.4332H33.6V41.1465H46.46V58.2866V58.2932ZM46.46 36.8665H33.6V32.5799H29.3133V24.0066H33.6V19.7199H46.46V36.8599V36.8665ZM67.8866 54.0066H63.6V58.2932H55.0266V54.0066H50.74V45.4332H55.0266V41.1465H63.6V45.4332H67.8866V54.0066ZM67.8866 32.5799H63.6V36.8665H50.74V19.7265H63.6V24.0132H67.8866V32.5865V32.5799Z" fill="black"/>
</svg>
