<svg width="96" height="97" viewBox="0 0 96 97" fill="none" xmlns="http://www.w3.org/2000/svg">
<path d="M90 18.3999V12.3999H84V6.3999H78V0.399902H18V6.3999H12V12.3999H6V18.3999H0V78.3999H6V84.3999H12V90.3999H18V96.3999H78V90.3999H84V84.3999H90V78.3999H96V18.3999H90ZM81 35.1999V43.9999H76.6V52.7999H72.2V61.5999H67.8V65.9999H63.4V70.3999H50.2V57.1999H45.8V61.5999H41.4V65.9999H37V70.3999H23.8V57.1999H19.4V43.9999H15V26.3999H28.2V30.7999H32.6V43.9999H37V35.1999H41.4V30.7999H45.8V26.3999H59V43.9999H63.4V30.7999H67.8V26.3999H81V35.1999Z" fill="black"/>
</svg>
